<mxfile host="app.diagrams.net" modified="2020-09-14T01:52:18.462Z" agent="5.0 (Macintosh; Intel Mac OS X 10_15_6) AppleWebKit/537.36 (KHTML, like Gecko) Chrome/84.0.4147.135 Safari/537.36" etag="nEQCw-moXp1Sdmvfbj4q" version="13.6.9" type="github">
  <diagram id="C5RBs43oDa-KdzZeNtuy" name="Page-1">
    <mxGraphModel dx="1678" dy="933" grid="1" gridSize="12" guides="1" tooltips="1" connect="1" arrows="1" fold="1" page="1" pageScale="1" pageWidth="827" pageHeight="1169" math="0" shadow="0">
      <root>
        <mxCell id="WIyWlLk6GJQsqaUBKTNV-0" />
        <mxCell id="WIyWlLk6GJQsqaUBKTNV-1" parent="WIyWlLk6GJQsqaUBKTNV-0" />
        <mxCell id="WIyWlLk6GJQsqaUBKTNV-2" value="" style="rounded=0;html=1;jettySize=auto;orthogonalLoop=1;fontSize=11;endArrow=block;endFill=0;endSize=8;strokeWidth=1;shadow=0;labelBackgroundColor=none;edgeStyle=orthogonalEdgeStyle;" parent="WIyWlLk6GJQsqaUBKTNV-1" source="WIyWlLk6GJQsqaUBKTNV-3" edge="1">
          <mxGeometry relative="1" as="geometry">
            <mxPoint x="220" y="170" as="targetPoint" />
          </mxGeometry>
        </mxCell>
        <mxCell id="WIyWlLk6GJQsqaUBKTNV-8" value="No" style="rounded=0;html=1;jettySize=auto;orthogonalLoop=1;fontSize=11;endArrow=block;endFill=0;endSize=8;strokeWidth=1;shadow=0;labelBackgroundColor=none;edgeStyle=orthogonalEdgeStyle;" parent="WIyWlLk6GJQsqaUBKTNV-1" target="WIyWlLk6GJQsqaUBKTNV-11" edge="1">
          <mxGeometry x="0.3333" y="20" relative="1" as="geometry">
            <mxPoint as="offset" />
            <mxPoint x="220" y="370" as="sourcePoint" />
          </mxGeometry>
        </mxCell>
        <mxCell id="WIyWlLk6GJQsqaUBKTNV-9" value="Yes" style="edgeStyle=orthogonalEdgeStyle;rounded=0;html=1;jettySize=auto;orthogonalLoop=1;fontSize=11;endArrow=block;endFill=0;endSize=8;strokeWidth=1;shadow=0;labelBackgroundColor=none;" parent="WIyWlLk6GJQsqaUBKTNV-1" target="WIyWlLk6GJQsqaUBKTNV-12" edge="1">
          <mxGeometry y="10" relative="1" as="geometry">
            <mxPoint as="offset" />
            <mxPoint x="270" y="330" as="sourcePoint" />
          </mxGeometry>
        </mxCell>
        <mxCell id="-EiAbfTq-4LDramSboVm-4" value="User" style="shape=umlActor;verticalLabelPosition=bottom;verticalAlign=top;html=1;outlineConnect=0;" vertex="1" parent="WIyWlLk6GJQsqaUBKTNV-1">
          <mxGeometry x="48" y="60" width="30" height="60" as="geometry" />
        </mxCell>
        <mxCell id="-EiAbfTq-4LDramSboVm-0" value="Financial Data" style="swimlane;html=1;childLayout=stackLayout;resizeParent=1;resizeParentMax=0;horizontal=1;startSize=20;horizontalStack=0;" vertex="1" parent="WIyWlLk6GJQsqaUBKTNV-1">
          <mxGeometry x="84" y="132" width="680" height="440" as="geometry" />
        </mxCell>
        <mxCell id="-EiAbfTq-4LDramSboVm-1" value="CLI Class" style="swimlane;html=1;startSize=20;horizontal=0;" vertex="1" parent="-EiAbfTq-4LDramSboVm-0">
          <mxGeometry y="20" width="680" height="140" as="geometry" />
        </mxCell>
        <mxCell id="-EiAbfTq-4LDramSboVm-7" value="Print greeting" style="shape=display;whiteSpace=wrap;html=1;" vertex="1" parent="-EiAbfTq-4LDramSboVm-1">
          <mxGeometry x="42" y="16" width="108" height="34" as="geometry" />
        </mxCell>
        <mxCell id="-EiAbfTq-4LDramSboVm-10" value="Input stock and&lt;br&gt;date&amp;nbsp;to get info on" style="shape=parallelogram;perimeter=parallelogramPerimeter;whiteSpace=wrap;html=1;fixedSize=1;" vertex="1" parent="-EiAbfTq-4LDramSboVm-1">
          <mxGeometry x="36" y="64" width="120" height="60" as="geometry" />
        </mxCell>
        <mxCell id="-EiAbfTq-4LDramSboVm-2" value="Stock Class" style="swimlane;html=1;startSize=20;horizontal=0;" vertex="1" parent="-EiAbfTq-4LDramSboVm-0">
          <mxGeometry y="160" width="680" height="140" as="geometry" />
        </mxCell>
        <mxCell id="-EiAbfTq-4LDramSboVm-16" value="Get SPY, DJIA, and NSDQ close as of input date" style="rounded=0;whiteSpace=wrap;html=1;" vertex="1" parent="-EiAbfTq-4LDramSboVm-2">
          <mxGeometry x="348" y="38" width="120" height="64" as="geometry" />
        </mxCell>
        <mxCell id="-EiAbfTq-4LDramSboVm-12" value="Create &#39;stock&#39; object with passed attributes from API" style="rounded=0;whiteSpace=wrap;html=1;" vertex="1" parent="-EiAbfTq-4LDramSboVm-2">
          <mxGeometry x="180" y="38" width="120" height="64" as="geometry" />
        </mxCell>
        <mxCell id="-EiAbfTq-4LDramSboVm-17" value="" style="endArrow=classic;html=1;entryX=1;entryY=0.5;entryDx=0;entryDy=0;exitX=0;exitY=0.5;exitDx=0;exitDy=0;" edge="1" parent="-EiAbfTq-4LDramSboVm-2" source="-EiAbfTq-4LDramSboVm-16" target="-EiAbfTq-4LDramSboVm-12">
          <mxGeometry width="50" height="50" relative="1" as="geometry">
            <mxPoint x="636" y="-38" as="sourcePoint" />
            <mxPoint x="686" y="-88" as="targetPoint" />
          </mxGeometry>
        </mxCell>
        <mxCell id="-EiAbfTq-4LDramSboVm-3" value="API Class" style="swimlane;html=1;startSize=20;horizontal=0;" vertex="1" parent="-EiAbfTq-4LDramSboVm-0">
          <mxGeometry y="300" width="680" height="140" as="geometry" />
        </mxCell>
        <mxCell id="-EiAbfTq-4LDramSboVm-13" value="Create hash with stock attributes" style="rounded=0;whiteSpace=wrap;html=1;" vertex="1" parent="-EiAbfTq-4LDramSboVm-3">
          <mxGeometry x="180" y="40" width="120" height="60" as="geometry" />
        </mxCell>
        <mxCell id="-EiAbfTq-4LDramSboVm-8" value="Get Data from Alpha Vantage API" style="rounded=0;whiteSpace=wrap;html=1;" vertex="1" parent="-EiAbfTq-4LDramSboVm-3">
          <mxGeometry x="36" y="40" width="120" height="60" as="geometry" />
        </mxCell>
        <mxCell id="-EiAbfTq-4LDramSboVm-15" value="" style="endArrow=classic;html=1;exitX=1;exitY=0.5;exitDx=0;exitDy=0;entryX=0;entryY=0.5;entryDx=0;entryDy=0;" edge="1" parent="-EiAbfTq-4LDramSboVm-3" source="-EiAbfTq-4LDramSboVm-8" target="-EiAbfTq-4LDramSboVm-13">
          <mxGeometry width="50" height="50" relative="1" as="geometry">
            <mxPoint x="636" y="-178" as="sourcePoint" />
            <mxPoint x="686" y="-228" as="targetPoint" />
          </mxGeometry>
        </mxCell>
        <mxCell id="-EiAbfTq-4LDramSboVm-11" value="" style="endArrow=classic;html=1;exitX=0.5;exitY=1;exitDx=0;exitDy=0;entryX=0.5;entryY=0;entryDx=0;entryDy=0;" edge="1" parent="-EiAbfTq-4LDramSboVm-0" source="-EiAbfTq-4LDramSboVm-10" target="-EiAbfTq-4LDramSboVm-8">
          <mxGeometry width="50" height="50" relative="1" as="geometry">
            <mxPoint x="636" y="134" as="sourcePoint" />
            <mxPoint x="686" y="84" as="targetPoint" />
          </mxGeometry>
        </mxCell>
        <mxCell id="-EiAbfTq-4LDramSboVm-14" value="" style="endArrow=classic;html=1;exitX=0.5;exitY=0;exitDx=0;exitDy=0;entryX=0.5;entryY=1;entryDx=0;entryDy=0;" edge="1" parent="-EiAbfTq-4LDramSboVm-0" source="-EiAbfTq-4LDramSboVm-13" target="-EiAbfTq-4LDramSboVm-12">
          <mxGeometry width="50" height="50" relative="1" as="geometry">
            <mxPoint x="636" y="122" as="sourcePoint" />
            <mxPoint x="686" y="72" as="targetPoint" />
          </mxGeometry>
        </mxCell>
        <mxCell id="-EiAbfTq-4LDramSboVm-5" value="Run App" style="rounded=1;whiteSpace=wrap;html=1;" vertex="1" parent="WIyWlLk6GJQsqaUBKTNV-1">
          <mxGeometry x="108" y="84" width="72" height="24" as="geometry" />
        </mxCell>
        <mxCell id="-EiAbfTq-4LDramSboVm-6" value="Exit" style="rounded=1;whiteSpace=wrap;html=1;" vertex="1" parent="WIyWlLk6GJQsqaUBKTNV-1">
          <mxGeometry x="660" y="585" width="72" height="24" as="geometry" />
        </mxCell>
      </root>
    </mxGraphModel>
  </diagram>
</mxfile>
